REM GENRE "Electronic"
REM DATE 2025
REM COMMENT "Just a little bit of frequency generated using Sox library"
PERFORMER "Sox ASCII"
TITLE "Test Samples ASCII"
FILE "Three Samples.flac" WAVE
  TRACK 01 AUDIO
    TITLE "300 Hz, ASCII"
    INDEX 01 00:00:00
  TRACK 02 AUDIO
    TITLE "400 Hz, ASCII"
    INDEX 01 00:02:00
  TRACK 03 AUDIO
    TITLE "500 Hz, ASCII (è, é, ì, ò, à, ç, °)"
    INDEX 01 00:04:00
